<svg width="494" height="377" viewBox="0 0 494 377" fill="none" xmlns="http://www.w3.org/2000/svg">
<g clipPath="url(#clip0_2346_3864)">
<path fill-rule="evenodd" clip-rule="evenodd" d="M183.043 253.541H168.397V279.212H133.036V253.541H80.1333V227.201L135.319 146.566H168.397V226.755H183.043V253.541ZM133.036 226.811V211.386C133.036 208.49 133.147 204.574 133.37 199.636C133.556 194.698 133.723 192.118 133.871 191.896H132.869C130.79 196.536 128.451 200.88 125.852 204.926L111.207 226.811H133.036Z" fill="#5DB04B"/>
<path fill-rule="evenodd" clip-rule="evenodd" d="M288.124 213.059C288.124 236.522 284.207 253.711 276.374 264.625C268.503 275.54 256.456 280.997 240.233 280.997C224.418 280.997 212.482 275.299 204.426 263.901C196.37 252.504 192.342 235.557 192.342 213.059C192.342 189.485 196.277 172.204 204.148 161.215C212.018 150.189 224.047 144.676 240.233 144.676C256.011 144.676 267.946 150.412 276.04 161.883C284.096 173.317 288.124 190.376 288.124 213.059ZM227.982 213.059C227.982 228.058 228.929 238.378 230.822 244.021C232.678 249.627 235.815 252.43 240.233 252.43C244.725 252.43 247.899 249.534 249.755 243.743C251.575 237.914 252.484 227.686 252.484 213.059C252.484 198.358 251.556 188.074 249.7 182.209C247.806 176.306 244.651 173.355 240.233 173.355C235.815 173.355 232.678 176.195 230.822 181.875C228.929 187.555 227.982 197.95 227.982 213.059Z" fill="#5DB04B"/>
<path fill-rule="evenodd" clip-rule="evenodd" d="M400.723 253.541H386.133V279.212H350.716V253.541H297.869V227.201L352.999 146.566H386.133V226.755H400.723V253.541ZM350.716 226.811V211.386C350.716 208.49 350.827 204.574 351.05 199.636C351.273 194.698 351.44 192.118 351.551 191.896H350.549C348.507 196.536 346.187 200.88 343.588 204.926L328.887 226.811H350.716Z" fill="#5DB04B"/>
<path d="M27.0083 176.025H80.6347" stroke="black" stroke-width="2.39453" stroke-linecap="round" stroke-linejoin="round"/>
<path d="M93.498 176.025H104.914" stroke="black" stroke-width="2.39453" stroke-linecap="round" stroke-linejoin="round"/>
<path d="M17.3188 160.936H113.267" stroke="black" stroke-width="2.39453" stroke-linecap="round" stroke-linejoin="round"/>
<path d="M9.41095 160.936H1.50342" stroke="black" stroke-width="2.39453" stroke-linecap="round" stroke-linejoin="round"/>
<path d="M17.3188 146.566H49.1717" stroke="black" stroke-width="2.39453" stroke-linecap="round" stroke-linejoin="round"/>
<path d="M57.6914 146.566H124.627" stroke="black" stroke-width="2.39453" stroke-linecap="round" stroke-linejoin="round"/>
<path d="M405.957 295.697H463.314" stroke="black" stroke-width="2.39453" stroke-linecap="round" stroke-linejoin="round"/>
<path d="M472.67 295.697H480.967" stroke="black" stroke-width="2.39453" stroke-linecap="round" stroke-linejoin="round"/>
<path d="M417.429 280.662H492.606" stroke="black" stroke-width="2.39453" stroke-linecap="round" stroke-linejoin="round"/>
<path d="M411.693 280.662H405.957" stroke="black" stroke-width="2.39453" stroke-linecap="round" stroke-linejoin="round"/>
<path d="M405.957 266.295H440.539" stroke="black" stroke-width="2.39453" stroke-linecap="round" stroke-linejoin="round"/>
<path d="M446.72 266.295H472.67" stroke="black" stroke-width="2.39453" stroke-linecap="round" stroke-linejoin="round"/>
<path fill-rule="evenodd" clip-rule="evenodd" d="M189.892 253.041H175.302V278.712H139.885V253.041H87.0386V226.701L142.169 146.066H175.302V226.255H189.892V253.041ZM139.885 226.311V210.886C139.885 207.99 139.997 204.074 140.22 199.136C140.442 194.198 140.609 191.618 140.721 191.396H139.718C137.676 196.036 135.356 200.38 132.757 204.426L118.056 226.311H139.885Z" stroke="black" stroke-width="3.61965" stroke-miterlimit="10"/>
<path fill-rule="evenodd" clip-rule="evenodd" d="M295.029 212.557C295.029 236.02 291.094 253.209 283.223 264.123C275.353 275.038 263.325 280.495 247.138 280.495C231.286 280.495 219.332 274.797 211.276 263.399C203.257 252.002 199.248 235.055 199.248 212.557C199.248 188.983 203.164 171.683 210.997 160.657C218.868 149.668 230.915 144.174 247.138 144.174C262.916 144.174 274.833 149.91 282.889 161.381C290.982 172.815 295.029 189.874 295.029 212.557ZM234.887 212.557C234.887 227.556 235.815 237.876 237.671 243.519C239.565 249.125 242.72 251.928 247.138 251.928C251.593 251.928 254.749 249.032 256.605 243.241C258.461 237.412 259.389 227.184 259.389 212.557C259.389 197.856 258.443 187.572 256.549 181.707C254.693 175.804 251.556 172.853 247.138 172.853C242.72 172.853 239.565 175.693 237.671 181.373C235.815 187.053 234.887 197.448 234.887 212.557Z" stroke="black" stroke-width="3.61965" stroke-miterlimit="10"/>
<path fill-rule="evenodd" clip-rule="evenodd" d="M407.572 253.041H392.982V278.712H357.621V253.041H304.719V226.701L359.849 146.066H392.982V226.255H407.572V253.041ZM357.621 226.311V210.886C357.621 207.99 357.714 204.074 357.9 199.136C358.122 194.198 358.289 191.618 358.401 191.396H357.398C355.357 196.036 353.036 200.38 350.438 204.426L335.736 226.311H357.621Z" stroke="black" stroke-width="3.61965" stroke-miterlimit="10"/>
<path d="M431.016 172.74V160.434" stroke="black" stroke-width="2.39453" stroke-linecap="round" stroke-linejoin="round"/>
<path d="M422.441 176.304L413.753 167.617" stroke="black" stroke-width="2.39453" stroke-linecap="round" stroke-linejoin="round"/>
<path d="M418.877 184.881H406.57" stroke="black" stroke-width="2.39453" stroke-linecap="round" stroke-linejoin="round"/>
<path d="M422.441 193.457L413.753 202.144" stroke="black" stroke-width="2.39453" stroke-linecap="round" stroke-linejoin="round"/>
<path d="M431.016 197.021V209.328" stroke="black" stroke-width="2.39453" stroke-linecap="round" stroke-linejoin="round"/>
<path d="M439.592 193.457L448.279 202.144" stroke="black" stroke-width="2.39453" stroke-linecap="round" stroke-linejoin="round"/>
<path d="M443.156 184.881H455.463" stroke="black" stroke-width="2.39453" stroke-linecap="round" stroke-linejoin="round"/>
<path d="M439.592 176.304L448.279 167.617" stroke="black" stroke-width="2.39453" stroke-linecap="round" stroke-linejoin="round"/>
<path d="M45.3848 233.94V225.086" stroke="black" stroke-width="2.39453" stroke-linecap="round" stroke-linejoin="round"/>
<path d="M39.2037 236.503L32.9111 230.266" stroke="black" stroke-width="2.39453" stroke-linecap="round" stroke-linejoin="round"/>
<path d="M36.6418 242.738H27.7319" stroke="black" stroke-width="2.39453" stroke-linecap="round" stroke-linejoin="round"/>
<path d="M39.2037 248.92L32.9111 255.213" stroke="black" stroke-width="2.39453" stroke-linecap="round" stroke-linejoin="round"/>
<path d="M45.3848 251.482V260.392" stroke="black" stroke-width="2.39453" stroke-linecap="round" stroke-linejoin="round"/>
<path d="M51.6216 248.92L57.8585 255.213" stroke="black" stroke-width="2.39453" stroke-linecap="round" stroke-linejoin="round"/>
<path d="M54.1831 242.738H63.0373" stroke="black" stroke-width="2.39453" stroke-linecap="round" stroke-linejoin="round"/>
<path d="M51.6216 236.503L57.8585 230.266" stroke="black" stroke-width="2.39453" stroke-linecap="round" stroke-linejoin="round"/>
<path d="M285.896 50.3962V41.4863" stroke="black" stroke-width="2.39453" stroke-linecap="round" stroke-linejoin="round"/>
<path d="M279.659 52.9586L273.367 46.666" stroke="black" stroke-width="2.39453" stroke-linecap="round" stroke-linejoin="round"/>
<path d="M277.098 59.1953H268.244" stroke="black" stroke-width="2.39453" stroke-linecap="round" stroke-linejoin="round"/>
<path d="M279.659 65.377L273.367 71.6696" stroke="black" stroke-width="2.39453" stroke-linecap="round" stroke-linejoin="round"/>
<path d="M285.896 67.9375V76.8474" stroke="black" stroke-width="2.39453" stroke-linecap="round" stroke-linejoin="round"/>
<path d="M292.078 65.377L298.37 71.6696" stroke="black" stroke-width="2.39453" stroke-linecap="round" stroke-linejoin="round"/>
<path d="M294.639 59.1953H303.549" stroke="black" stroke-width="2.39453" stroke-linecap="round" stroke-linejoin="round"/>
<path d="M292.078 52.9586L298.37 46.666" stroke="black" stroke-width="2.39453" stroke-linecap="round" stroke-linejoin="round"/>
<path d="M393.941 345.002H89V297H393.941V345.002Z" stroke="black" stroke-width="2.67297" stroke-linecap="round" stroke-linejoin="round"/>
<path d="M104.568 317.392V315.364H114.125V317.392H110.562V327H108.131V317.392H104.568ZM118.074 321.955V327H115.653V315.364H118.006V319.812H118.108C118.305 319.297 118.623 318.894 119.062 318.602C119.502 318.307 120.053 318.159 120.716 318.159C121.322 318.159 121.85 318.292 122.301 318.557C122.756 318.818 123.108 319.195 123.358 319.688C123.612 320.176 123.737 320.761 123.733 321.443V327H121.312V321.875C121.316 321.337 121.18 320.919 120.903 320.619C120.631 320.32 120.248 320.17 119.756 320.17C119.426 320.17 119.134 320.241 118.881 320.381C118.631 320.521 118.434 320.725 118.29 320.994C118.15 321.259 118.078 321.58 118.074 321.955ZM129.615 327.17C128.717 327.17 127.945 326.989 127.297 326.625C126.653 326.258 126.157 325.739 125.808 325.068C125.46 324.394 125.286 323.597 125.286 322.676C125.286 321.778 125.46 320.991 125.808 320.312C126.157 319.634 126.647 319.106 127.28 318.727C127.916 318.348 128.662 318.159 129.518 318.159C130.094 318.159 130.63 318.252 131.126 318.438C131.626 318.619 132.062 318.894 132.433 319.261C132.808 319.629 133.1 320.091 133.308 320.648C133.517 321.201 133.621 321.848 133.621 322.591V323.256H126.251V321.756H131.342C131.342 321.407 131.267 321.098 131.115 320.83C130.964 320.561 130.753 320.35 130.484 320.199C130.219 320.044 129.911 319.966 129.558 319.966C129.191 319.966 128.865 320.051 128.581 320.222C128.301 320.388 128.081 320.614 127.922 320.898C127.763 321.178 127.681 321.491 127.678 321.835V323.261C127.678 323.693 127.757 324.066 127.916 324.381C128.079 324.695 128.308 324.938 128.604 325.108C128.899 325.278 129.25 325.364 129.655 325.364C129.924 325.364 130.17 325.326 130.393 325.25C130.617 325.174 130.808 325.061 130.967 324.909C131.126 324.758 131.248 324.572 131.331 324.352L133.57 324.5C133.456 325.038 133.223 325.508 132.871 325.909C132.522 326.307 132.071 326.617 131.518 326.841C130.969 327.061 130.335 327.17 129.615 327.17ZM138.903 327V318.273H141.25V319.795H141.341C141.5 319.254 141.767 318.845 142.142 318.568C142.517 318.288 142.949 318.148 143.438 318.148C143.559 318.148 143.689 318.155 143.83 318.17C143.97 318.186 144.093 318.206 144.199 318.233V320.381C144.085 320.347 143.928 320.316 143.727 320.29C143.527 320.263 143.343 320.25 143.176 320.25C142.82 320.25 142.502 320.328 142.222 320.483C141.945 320.634 141.725 320.847 141.562 321.119C141.403 321.392 141.324 321.706 141.324 322.062V327H138.903ZM149.021 327.17C148.124 327.17 147.351 326.989 146.703 326.625C146.059 326.258 145.563 325.739 145.214 325.068C144.866 324.394 144.692 323.597 144.692 322.676C144.692 321.778 144.866 320.991 145.214 320.312C145.563 319.634 146.054 319.106 146.686 318.727C147.322 318.348 148.069 318.159 148.925 318.159C149.5 318.159 150.036 318.252 150.533 318.438C151.033 318.619 151.468 318.894 151.839 319.261C152.214 319.629 152.506 320.091 152.714 320.648C152.923 321.201 153.027 321.848 153.027 322.591V323.256H145.658V321.756H150.749C150.749 321.407 150.673 321.098 150.521 320.83C150.37 320.561 150.16 320.35 149.891 320.199C149.625 320.044 149.317 319.966 148.964 319.966C148.597 319.966 148.271 320.051 147.987 320.222C147.707 320.388 147.487 320.614 147.328 320.898C147.169 321.178 147.088 321.491 147.084 321.835V323.261C147.084 323.693 147.163 324.066 147.322 324.381C147.485 324.695 147.714 324.938 148.01 325.108C148.305 325.278 148.656 325.364 149.061 325.364C149.33 325.364 149.576 325.326 149.8 325.25C150.023 325.174 150.214 325.061 150.374 324.909C150.533 324.758 150.654 324.572 150.737 324.352L152.976 324.5C152.862 325.038 152.629 325.508 152.277 325.909C151.929 326.307 151.478 326.617 150.925 326.841C150.375 327.061 149.741 327.17 149.021 327.17ZM160.374 330.273V325.602H160.3C160.186 325.845 160.025 326.085 159.817 326.324C159.612 326.559 159.345 326.754 159.016 326.909C158.69 327.064 158.292 327.142 157.822 327.142C157.16 327.142 156.559 326.972 156.021 326.631C155.487 326.286 155.063 325.78 154.749 325.114C154.438 324.443 154.283 323.621 154.283 322.648C154.283 321.648 154.444 320.816 154.766 320.153C155.088 319.487 155.516 318.989 156.05 318.659C156.588 318.326 157.177 318.159 157.817 318.159C158.305 318.159 158.713 318.242 159.038 318.409C159.368 318.572 159.633 318.777 159.834 319.023C160.038 319.265 160.194 319.504 160.3 319.739H160.402V318.273H162.788V330.273H160.374ZM158.589 325.216C158.98 325.216 159.309 325.11 159.578 324.898C159.851 324.682 160.059 324.381 160.203 323.994C160.351 323.608 160.425 323.155 160.425 322.636C160.425 322.117 160.353 321.667 160.209 321.284C160.065 320.902 159.857 320.606 159.584 320.398C159.311 320.189 158.98 320.085 158.589 320.085C158.192 320.085 157.857 320.193 157.584 320.409C157.311 320.625 157.105 320.924 156.964 321.307C156.824 321.689 156.754 322.133 156.754 322.636C156.754 323.144 156.824 323.593 156.964 323.983C157.108 324.369 157.315 324.672 157.584 324.892C157.857 325.108 158.192 325.216 158.589 325.216ZM170.328 323.284V318.273H172.749V327H170.425V325.415H170.334C170.137 325.926 169.809 326.337 169.351 326.648C168.896 326.958 168.341 327.114 167.686 327.114C167.103 327.114 166.589 326.981 166.146 326.716C165.703 326.451 165.357 326.074 165.107 325.585C164.86 325.097 164.735 324.511 164.732 323.83V318.273H167.152V323.398C167.156 323.913 167.294 324.32 167.567 324.619C167.839 324.919 168.205 325.068 168.663 325.068C168.955 325.068 169.228 325.002 169.482 324.869C169.735 324.733 169.94 324.532 170.095 324.267C170.254 324.002 170.332 323.674 170.328 323.284ZM178.662 327.17C177.764 327.17 176.991 326.989 176.344 326.625C175.7 326.258 175.204 325.739 174.855 325.068C174.507 324.394 174.332 323.597 174.332 322.676C174.332 321.778 174.507 320.991 174.855 320.312C175.204 319.634 175.694 319.106 176.327 318.727C176.963 318.348 177.709 318.159 178.565 318.159C179.141 318.159 179.677 318.252 180.173 318.438C180.673 318.619 181.109 318.894 181.48 319.261C181.855 319.629 182.147 320.091 182.355 320.648C182.563 321.201 182.668 321.848 182.668 322.591V323.256H175.298V321.756H180.389C180.389 321.407 180.313 321.098 180.162 320.83C180.01 320.561 179.8 320.35 179.531 320.199C179.266 320.044 178.957 319.966 178.605 319.966C178.238 319.966 177.912 320.051 177.628 320.222C177.348 320.388 177.128 320.614 176.969 320.898C176.81 321.178 176.728 321.491 176.724 321.835V323.261C176.724 323.693 176.804 324.066 176.963 324.381C177.126 324.695 177.355 324.938 177.651 325.108C177.946 325.278 178.296 325.364 178.702 325.364C178.971 325.364 179.217 325.326 179.44 325.25C179.664 325.174 179.855 325.061 180.014 324.909C180.173 324.758 180.295 324.572 180.378 324.352L182.616 324.5C182.503 325.038 182.27 325.508 181.918 325.909C181.569 326.307 181.118 326.617 180.565 326.841C180.016 327.061 179.382 327.17 178.662 327.17ZM191.509 320.761L189.293 320.898C189.255 320.708 189.173 320.538 189.048 320.386C188.923 320.231 188.759 320.108 188.554 320.017C188.353 319.922 188.113 319.875 187.832 319.875C187.457 319.875 187.141 319.955 186.884 320.114C186.626 320.269 186.497 320.477 186.497 320.739C186.497 320.947 186.58 321.123 186.747 321.267C186.914 321.411 187.2 321.527 187.605 321.614L189.185 321.932C190.033 322.106 190.666 322.386 191.082 322.773C191.499 323.159 191.707 323.667 191.707 324.295C191.707 324.867 191.539 325.369 191.202 325.801C190.868 326.233 190.41 326.57 189.827 326.812C189.247 327.051 188.579 327.17 187.821 327.17C186.666 327.17 185.745 326.93 185.06 326.449C184.378 325.964 183.978 325.305 183.861 324.472L186.241 324.347C186.313 324.699 186.488 324.968 186.764 325.153C187.041 325.335 187.395 325.426 187.827 325.426C188.251 325.426 188.592 325.345 188.849 325.182C189.111 325.015 189.243 324.801 189.247 324.54C189.243 324.32 189.151 324.14 188.969 324C188.787 323.856 188.507 323.746 188.128 323.67L186.616 323.369C185.764 323.199 185.13 322.903 184.713 322.483C184.3 322.062 184.094 321.527 184.094 320.875C184.094 320.314 184.245 319.831 184.548 319.426C184.855 319.021 185.285 318.708 185.838 318.489C186.395 318.269 187.046 318.159 187.793 318.159C188.895 318.159 189.762 318.392 190.395 318.858C191.031 319.324 191.402 319.958 191.509 320.761ZM197.874 318.273V320.091H192.618V318.273H197.874ZM193.811 316.182H196.232V324.318C196.232 324.542 196.266 324.716 196.334 324.841C196.402 324.962 196.497 325.047 196.618 325.097C196.743 325.146 196.887 325.17 197.05 325.17C197.163 325.17 197.277 325.161 197.391 325.142C197.504 325.119 197.591 325.102 197.652 325.091L198.033 326.892C197.911 326.93 197.741 326.973 197.521 327.023C197.302 327.076 197.035 327.108 196.72 327.119C196.137 327.142 195.625 327.064 195.186 326.886C194.75 326.708 194.411 326.432 194.169 326.057C193.927 325.682 193.807 325.208 193.811 324.636V316.182ZM203.334 327.17C202.436 327.17 201.663 326.989 201.016 326.625C200.372 326.258 199.875 325.739 199.527 325.068C199.179 324.394 199.004 323.597 199.004 322.676C199.004 321.778 199.179 320.991 199.527 320.312C199.875 319.634 200.366 319.106 200.999 318.727C201.635 318.348 202.381 318.159 203.237 318.159C203.813 318.159 204.349 318.252 204.845 318.438C205.345 318.619 205.781 318.894 206.152 319.261C206.527 319.629 206.819 320.091 207.027 320.648C207.235 321.201 207.339 321.848 207.339 322.591V323.256H199.97V321.756H205.061C205.061 321.407 204.985 321.098 204.834 320.83C204.682 320.561 204.472 320.35 204.203 320.199C203.938 320.044 203.629 319.966 203.277 319.966C202.91 319.966 202.584 320.051 202.3 320.222C202.019 320.388 201.8 320.614 201.641 320.898C201.482 321.178 201.4 321.491 201.396 321.835V323.261C201.396 323.693 201.476 324.066 201.635 324.381C201.798 324.695 202.027 324.938 202.322 325.108C202.618 325.278 202.968 325.364 203.374 325.364C203.643 325.364 203.889 325.326 204.112 325.25C204.336 325.174 204.527 325.061 204.686 324.909C204.845 324.758 204.966 324.572 205.05 324.352L207.288 324.5C207.175 325.038 206.942 325.508 206.589 325.909C206.241 326.307 205.79 326.617 205.237 326.841C204.688 327.061 204.054 327.17 203.334 327.17ZM212.135 327.142C211.472 327.142 210.872 326.972 210.334 326.631C209.8 326.286 209.375 325.78 209.061 325.114C208.75 324.443 208.595 323.621 208.595 322.648C208.595 321.648 208.756 320.816 209.078 320.153C209.4 319.487 209.828 318.989 210.362 318.659C210.9 318.326 211.489 318.159 212.129 318.159C212.618 318.159 213.025 318.242 213.351 318.409C213.68 318.572 213.946 318.777 214.146 319.023C214.351 319.265 214.506 319.504 214.612 319.739H214.686V315.364H217.101V327H214.714V325.602H214.612C214.499 325.845 214.338 326.085 214.129 326.324C213.925 326.559 213.658 326.754 213.328 326.909C213.002 327.064 212.605 327.142 212.135 327.142ZM212.902 325.216C213.292 325.216 213.622 325.11 213.891 324.898C214.163 324.682 214.372 324.381 214.516 323.994C214.663 323.608 214.737 323.155 214.737 322.636C214.737 322.117 214.665 321.667 214.521 321.284C214.377 320.902 214.169 320.606 213.896 320.398C213.624 320.189 213.292 320.085 212.902 320.085C212.504 320.085 212.169 320.193 211.896 320.409C211.624 320.625 211.417 320.924 211.277 321.307C211.137 321.689 211.067 322.133 211.067 322.636C211.067 323.144 211.137 323.593 211.277 323.983C211.421 324.369 211.627 324.672 211.896 324.892C212.169 325.108 212.504 325.216 212.902 325.216ZM222.794 330.273V318.273H225.18V319.739H225.288C225.394 319.504 225.548 319.265 225.749 319.023C225.953 318.777 226.218 318.572 226.544 318.409C226.874 318.242 227.283 318.159 227.771 318.159C228.408 318.159 228.995 318.326 229.533 318.659C230.071 318.989 230.5 319.487 230.822 320.153C231.144 320.816 231.305 321.648 231.305 322.648C231.305 323.621 231.148 324.443 230.834 325.114C230.523 325.78 230.099 326.286 229.561 326.631C229.027 326.972 228.429 327.142 227.766 327.142C227.296 327.142 226.896 327.064 226.567 326.909C226.241 326.754 225.974 326.559 225.766 326.324C225.557 326.085 225.398 325.845 225.288 325.602H225.214V330.273H222.794ZM225.163 322.636C225.163 323.155 225.235 323.608 225.379 323.994C225.523 324.381 225.732 324.682 226.004 324.898C226.277 325.11 226.608 325.216 226.999 325.216C227.393 325.216 227.726 325.108 227.999 324.892C228.271 324.672 228.478 324.369 228.618 323.983C228.762 323.593 228.834 323.144 228.834 322.636C228.834 322.133 228.764 321.689 228.624 321.307C228.483 320.924 228.277 320.625 228.004 320.409C227.732 320.193 227.396 320.085 226.999 320.085C226.605 320.085 226.271 320.189 225.999 320.398C225.73 320.606 225.523 320.902 225.379 321.284C225.235 321.667 225.163 322.117 225.163 322.636ZM235.408 327.165C234.851 327.165 234.355 327.068 233.919 326.875C233.483 326.678 233.139 326.388 232.885 326.006C232.635 325.619 232.51 325.138 232.51 324.562C232.51 324.078 232.599 323.67 232.777 323.341C232.955 323.011 233.197 322.746 233.504 322.545C233.811 322.345 234.16 322.193 234.55 322.091C234.944 321.989 235.357 321.917 235.788 321.875C236.296 321.822 236.705 321.773 237.016 321.727C237.326 321.678 237.552 321.606 237.692 321.511C237.832 321.417 237.902 321.277 237.902 321.091V321.057C237.902 320.697 237.788 320.419 237.561 320.222C237.338 320.025 237.019 319.926 236.607 319.926C236.171 319.926 235.824 320.023 235.567 320.216C235.309 320.405 235.139 320.644 235.055 320.932L232.817 320.75C232.93 320.22 233.154 319.761 233.487 319.375C233.821 318.985 234.25 318.686 234.777 318.477C235.307 318.265 235.921 318.159 236.618 318.159C237.103 318.159 237.567 318.216 238.01 318.33C238.457 318.443 238.853 318.619 239.197 318.858C239.546 319.097 239.821 319.403 240.021 319.778C240.222 320.15 240.322 320.595 240.322 321.114V327H238.027V325.79H237.959C237.819 326.062 237.631 326.303 237.396 326.511C237.161 326.716 236.879 326.877 236.55 326.994C236.22 327.108 235.839 327.165 235.408 327.165ZM236.101 325.494C236.457 325.494 236.771 325.424 237.044 325.284C237.317 325.14 237.531 324.947 237.686 324.705C237.841 324.462 237.919 324.187 237.919 323.881V322.955C237.843 323.004 237.739 323.049 237.607 323.091C237.478 323.129 237.332 323.165 237.169 323.199C237.006 323.229 236.843 323.258 236.68 323.284C236.518 323.307 236.37 323.328 236.237 323.347C235.953 323.388 235.705 323.455 235.493 323.545C235.281 323.636 235.116 323.759 234.999 323.915C234.881 324.066 234.822 324.256 234.822 324.483C234.822 324.812 234.942 325.064 235.18 325.239C235.423 325.409 235.73 325.494 236.101 325.494ZM246.132 330.455C245.348 330.455 244.676 330.347 244.115 330.131C243.558 329.919 243.115 329.629 242.786 329.261C242.456 328.894 242.242 328.481 242.143 328.023L244.382 327.722C244.45 327.896 244.558 328.059 244.706 328.21C244.854 328.362 245.049 328.483 245.291 328.574C245.537 328.669 245.837 328.716 246.189 328.716C246.715 328.716 247.149 328.587 247.49 328.33C247.835 328.076 248.007 327.65 248.007 327.051V325.455H247.905C247.799 325.697 247.64 325.926 247.428 326.142C247.215 326.358 246.943 326.534 246.609 326.67C246.276 326.807 245.878 326.875 245.416 326.875C244.761 326.875 244.164 326.723 243.626 326.42C243.092 326.114 242.666 325.646 242.348 325.017C242.034 324.384 241.876 323.585 241.876 322.619C241.876 321.631 242.037 320.805 242.359 320.142C242.681 319.479 243.109 318.983 243.643 318.653C244.181 318.324 244.77 318.159 245.411 318.159C245.899 318.159 246.308 318.242 246.638 318.409C246.967 318.572 247.232 318.777 247.433 319.023C247.638 319.265 247.795 319.504 247.905 319.739H247.996V318.273H250.399V327.085C250.399 327.828 250.217 328.449 249.854 328.949C249.49 329.449 248.986 329.824 248.342 330.074C247.702 330.328 246.965 330.455 246.132 330.455ZM246.183 325.057C246.573 325.057 246.903 324.96 247.172 324.767C247.445 324.57 247.653 324.29 247.797 323.926C247.945 323.559 248.018 323.119 248.018 322.608C248.018 322.097 247.946 321.653 247.803 321.278C247.659 320.9 247.45 320.606 247.178 320.398C246.905 320.189 246.573 320.085 246.183 320.085C245.786 320.085 245.45 320.193 245.178 320.409C244.905 320.621 244.698 320.917 244.558 321.295C244.418 321.674 244.348 322.112 244.348 322.608C244.348 323.112 244.418 323.547 244.558 323.915C244.702 324.278 244.909 324.561 245.178 324.761C245.45 324.958 245.786 325.057 246.183 325.057ZM256.303 327.17C255.405 327.17 254.632 326.989 253.984 326.625C253.34 326.258 252.844 325.739 252.496 325.068C252.147 324.394 251.973 323.597 251.973 322.676C251.973 321.778 252.147 320.991 252.496 320.312C252.844 319.634 253.335 319.106 253.967 318.727C254.604 318.348 255.35 318.159 256.206 318.159C256.782 318.159 257.318 318.252 257.814 318.438C258.314 318.619 258.75 318.894 259.121 319.261C259.496 319.629 259.787 320.091 259.996 320.648C260.204 321.201 260.308 321.848 260.308 322.591V323.256H252.939V321.756H258.03C258.03 321.407 257.954 321.098 257.803 320.83C257.651 320.561 257.441 320.35 257.172 320.199C256.907 320.044 256.598 319.966 256.246 319.966C255.878 319.966 255.553 320.051 255.268 320.222C254.988 320.388 254.768 320.614 254.609 320.898C254.45 321.178 254.369 321.491 254.365 321.835V323.261C254.365 323.693 254.445 324.066 254.604 324.381C254.767 324.695 254.996 324.938 255.291 325.108C255.587 325.278 255.937 325.364 256.342 325.364C256.611 325.364 256.857 325.326 257.081 325.25C257.304 325.174 257.496 325.061 257.655 324.909C257.814 324.758 257.935 324.572 258.018 324.352L260.257 324.5C260.143 325.038 259.911 325.508 259.558 325.909C259.21 326.307 258.759 326.617 258.206 326.841C257.657 327.061 257.022 327.17 256.303 327.17ZM268.807 327.142C268.144 327.142 267.544 326.972 267.006 326.631C266.472 326.286 266.047 325.78 265.733 325.114C265.422 324.443 265.267 323.621 265.267 322.648C265.267 321.648 265.428 320.816 265.75 320.153C266.072 319.487 266.5 318.989 267.034 318.659C267.572 318.326 268.161 318.159 268.801 318.159C269.29 318.159 269.697 318.242 270.023 318.409C270.352 318.572 270.617 318.777 270.818 319.023C271.023 319.265 271.178 319.504 271.284 319.739H271.358V315.364H273.773V327H271.386V325.602H271.284C271.17 325.845 271.009 326.085 270.801 326.324C270.597 326.559 270.33 326.754 270 326.909C269.674 327.064 269.277 327.142 268.807 327.142ZM269.574 325.216C269.964 325.216 270.294 325.11 270.562 324.898C270.835 324.682 271.044 324.381 271.188 323.994C271.335 323.608 271.409 323.155 271.409 322.636C271.409 322.117 271.337 321.667 271.193 321.284C271.049 320.902 270.841 320.606 270.568 320.398C270.295 320.189 269.964 320.085 269.574 320.085C269.176 320.085 268.841 320.193 268.568 320.409C268.295 320.625 268.089 320.924 267.949 321.307C267.809 321.689 267.739 322.133 267.739 322.636C267.739 323.144 267.809 323.593 267.949 323.983C268.093 324.369 268.299 324.672 268.568 324.892C268.841 325.108 269.176 325.216 269.574 325.216ZM279.706 327.17C278.823 327.17 278.06 326.983 277.416 326.608C276.776 326.229 276.282 325.703 275.933 325.028C275.585 324.35 275.411 323.564 275.411 322.67C275.411 321.769 275.585 320.981 275.933 320.307C276.282 319.629 276.776 319.102 277.416 318.727C278.06 318.348 278.823 318.159 279.706 318.159C280.589 318.159 281.35 318.348 281.99 318.727C282.634 319.102 283.13 319.629 283.479 320.307C283.827 320.981 284.001 321.769 284.001 322.67C284.001 323.564 283.827 324.35 283.479 325.028C283.13 325.703 282.634 326.229 281.99 326.608C281.35 326.983 280.589 327.17 279.706 327.17ZM279.717 325.295C280.119 325.295 280.454 325.182 280.723 324.955C280.992 324.723 281.195 324.409 281.331 324.011C281.471 323.614 281.541 323.161 281.541 322.653C281.541 322.146 281.471 321.693 281.331 321.295C281.195 320.898 280.992 320.583 280.723 320.352C280.454 320.121 280.119 320.006 279.717 320.006C279.312 320.006 278.971 320.121 278.695 320.352C278.422 320.583 278.215 320.898 278.075 321.295C277.939 321.693 277.871 322.146 277.871 322.653C277.871 323.161 277.939 323.614 278.075 324.011C278.215 324.409 278.422 324.723 278.695 324.955C278.971 325.182 279.312 325.295 279.717 325.295ZM289.553 327.17C288.655 327.17 287.882 326.989 287.234 326.625C286.59 326.258 286.094 325.739 285.746 325.068C285.397 324.394 285.223 323.597 285.223 322.676C285.223 321.778 285.397 320.991 285.746 320.312C286.094 319.634 286.585 319.106 287.217 318.727C287.854 318.348 288.6 318.159 289.456 318.159C290.032 318.159 290.568 318.252 291.064 318.438C291.564 318.619 292 318.894 292.371 319.261C292.746 319.629 293.037 320.091 293.246 320.648C293.454 321.201 293.558 321.848 293.558 322.591V323.256H286.189V321.756H291.28C291.28 321.407 291.204 321.098 291.053 320.83C290.901 320.561 290.691 320.35 290.422 320.199C290.157 320.044 289.848 319.966 289.496 319.966C289.128 319.966 288.803 320.051 288.518 320.222C288.238 320.388 288.018 320.614 287.859 320.898C287.7 321.178 287.619 321.491 287.615 321.835V323.261C287.615 323.693 287.695 324.066 287.854 324.381C288.017 324.695 288.246 324.938 288.541 325.108C288.837 325.278 289.187 325.364 289.592 325.364C289.861 325.364 290.107 325.326 290.331 325.25C290.554 325.174 290.746 325.061 290.905 324.909C291.064 324.758 291.185 324.572 291.268 324.352L293.507 324.5C293.393 325.038 293.161 325.508 292.808 325.909C292.46 326.307 292.009 326.617 291.456 326.841C290.907 327.061 290.272 327.17 289.553 327.17ZM302.399 320.761L300.183 320.898C300.145 320.708 300.064 320.538 299.939 320.386C299.814 320.231 299.649 320.108 299.445 320.017C299.244 319.922 299.003 319.875 298.723 319.875C298.348 319.875 298.032 319.955 297.774 320.114C297.517 320.269 297.388 320.477 297.388 320.739C297.388 320.947 297.471 321.123 297.638 321.267C297.804 321.411 298.09 321.527 298.496 321.614L300.075 321.932C300.924 322.106 301.556 322.386 301.973 322.773C302.39 323.159 302.598 323.667 302.598 324.295C302.598 324.867 302.429 325.369 302.092 325.801C301.759 326.233 301.301 326.57 300.717 326.812C300.138 327.051 299.469 327.17 298.712 327.17C297.556 327.17 296.636 326.93 295.95 326.449C295.268 325.964 294.869 325.305 294.751 324.472L297.132 324.347C297.204 324.699 297.378 324.968 297.655 325.153C297.931 325.335 298.286 325.426 298.717 325.426C299.142 325.426 299.482 325.345 299.74 325.182C300.001 325.015 300.134 324.801 300.138 324.54C300.134 324.32 300.041 324.14 299.859 324C299.678 323.856 299.397 323.746 299.018 323.67L297.507 323.369C296.655 323.199 296.02 322.903 295.604 322.483C295.191 322.062 294.984 321.527 294.984 320.875C294.984 320.314 295.136 319.831 295.439 319.426C295.746 319.021 296.176 318.708 296.729 318.489C297.286 318.269 297.937 318.159 298.683 318.159C299.786 318.159 300.653 318.392 301.286 318.858C301.922 319.324 302.293 319.958 302.399 320.761ZM310.246 321.955V327H307.825V318.273H310.132V319.812H310.234C310.428 319.305 310.751 318.903 311.206 318.608C311.661 318.309 312.212 318.159 312.859 318.159C313.465 318.159 313.994 318.292 314.445 318.557C314.895 318.822 315.246 319.201 315.496 319.693C315.746 320.182 315.871 320.765 315.871 321.443V327H313.45V321.875C313.454 321.341 313.318 320.924 313.041 320.625C312.765 320.322 312.384 320.17 311.899 320.17C311.573 320.17 311.286 320.241 311.036 320.381C310.789 320.521 310.596 320.725 310.456 320.994C310.32 321.259 310.25 321.58 310.246 321.955ZM321.722 327.17C320.839 327.17 320.076 326.983 319.432 326.608C318.792 326.229 318.297 325.703 317.949 325.028C317.6 324.35 317.426 323.564 317.426 322.67C317.426 321.769 317.6 320.981 317.949 320.307C318.297 319.629 318.792 319.102 319.432 318.727C320.076 318.348 320.839 318.159 321.722 318.159C322.604 318.159 323.366 318.348 324.006 318.727C324.65 319.102 325.146 319.629 325.494 320.307C325.843 320.981 326.017 321.769 326.017 322.67C326.017 323.564 325.843 324.35 325.494 325.028C325.146 325.703 324.65 326.229 324.006 326.608C323.366 326.983 322.604 327.17 321.722 327.17ZM321.733 325.295C322.134 325.295 322.47 325.182 322.739 324.955C323.008 324.723 323.21 324.409 323.347 324.011C323.487 323.614 323.557 323.161 323.557 322.653C323.557 322.146 323.487 321.693 323.347 321.295C323.21 320.898 323.008 320.583 322.739 320.352C322.47 320.121 322.134 320.006 321.733 320.006C321.328 320.006 320.987 320.121 320.71 320.352C320.438 320.583 320.231 320.898 320.091 321.295C319.955 321.693 319.886 322.146 319.886 322.653C319.886 323.161 319.955 323.614 320.091 324.011C320.231 324.409 320.438 324.723 320.71 324.955C320.987 325.182 321.328 325.295 321.733 325.295ZM332.233 318.273V320.091H326.977V318.273H332.233ZM328.17 316.182H330.591V324.318C330.591 324.542 330.625 324.716 330.693 324.841C330.761 324.962 330.856 325.047 330.977 325.097C331.102 325.146 331.246 325.17 331.409 325.17C331.523 325.17 331.636 325.161 331.75 325.142C331.864 325.119 331.951 325.102 332.011 325.091L332.392 326.892C332.271 326.93 332.1 326.973 331.881 327.023C331.661 327.076 331.394 327.108 331.08 327.119C330.496 327.142 329.985 327.064 329.545 326.886C329.11 326.708 328.771 326.432 328.528 326.057C328.286 325.682 328.167 325.208 328.17 324.636V316.182ZM341.49 327.17C340.592 327.17 339.82 326.989 339.172 326.625C338.528 326.258 338.032 325.739 337.683 325.068C337.335 324.394 337.161 323.597 337.161 322.676C337.161 321.778 337.335 320.991 337.683 320.312C338.032 319.634 338.522 319.106 339.155 318.727C339.791 318.348 340.537 318.159 341.393 318.159C341.969 318.159 342.505 318.252 343.001 318.438C343.501 318.619 343.937 318.894 344.308 319.261C344.683 319.629 344.975 320.091 345.183 320.648C345.392 321.201 345.496 321.848 345.496 322.591V323.256H338.126V321.756H343.217C343.217 321.407 343.142 321.098 342.99 320.83C342.839 320.561 342.628 320.35 342.359 320.199C342.094 320.044 341.786 319.966 341.433 319.966C341.066 319.966 340.74 320.051 340.456 320.222C340.176 320.388 339.956 320.614 339.797 320.898C339.638 321.178 339.556 321.491 339.553 321.835V323.261C339.553 323.693 339.632 324.066 339.791 324.381C339.954 324.695 340.183 324.938 340.479 325.108C340.774 325.278 341.125 325.364 341.53 325.364C341.799 325.364 342.045 325.326 342.268 325.25C342.492 325.174 342.683 325.061 342.842 324.909C343.001 324.758 343.123 324.572 343.206 324.352L345.445 324.5C345.331 325.038 345.098 325.508 344.746 325.909C344.397 326.307 343.946 326.617 343.393 326.841C342.844 327.061 342.21 327.17 341.49 327.17ZM348.942 318.273L350.544 321.324L352.186 318.273H354.669L352.141 322.636L354.737 327H352.266L350.544 323.983L348.851 327H346.351L348.942 322.636L346.442 318.273H348.942ZM356.107 327V318.273H358.527V327H356.107ZM357.322 317.148C356.963 317.148 356.654 317.028 356.396 316.79C356.143 316.547 356.016 316.258 356.016 315.92C356.016 315.587 356.143 315.301 356.396 315.062C356.654 314.82 356.963 314.699 357.322 314.699C357.682 314.699 357.989 314.82 358.243 315.062C358.5 315.301 358.629 315.587 358.629 315.92C358.629 316.258 358.5 316.547 358.243 316.79C357.989 317.028 357.682 317.148 357.322 317.148ZM367.727 320.761L365.511 320.898C365.473 320.708 365.392 320.538 365.267 320.386C365.142 320.231 364.977 320.108 364.773 320.017C364.572 319.922 364.331 319.875 364.051 319.875C363.676 319.875 363.36 319.955 363.102 320.114C362.845 320.269 362.716 320.477 362.716 320.739C362.716 320.947 362.799 321.123 362.966 321.267C363.133 321.411 363.419 321.527 363.824 321.614L365.403 321.932C366.252 322.106 366.884 322.386 367.301 322.773C367.718 323.159 367.926 323.667 367.926 324.295C367.926 324.867 367.758 325.369 367.42 325.801C367.087 326.233 366.629 326.57 366.045 326.812C365.466 327.051 364.797 327.17 364.04 327.17C362.884 327.17 361.964 326.93 361.278 326.449C360.597 325.964 360.197 325.305 360.08 324.472L362.46 324.347C362.532 324.699 362.706 324.968 362.983 325.153C363.259 325.335 363.614 325.426 364.045 325.426C364.47 325.426 364.811 325.345 365.068 325.182C365.33 325.015 365.462 324.801 365.466 324.54C365.462 324.32 365.369 324.14 365.188 324C365.006 323.856 364.725 323.746 364.347 323.67L362.835 323.369C361.983 323.199 361.348 322.903 360.932 322.483C360.519 322.062 360.312 321.527 360.312 320.875C360.312 320.314 360.464 319.831 360.767 319.426C361.074 319.021 361.504 318.708 362.057 318.489C362.614 318.269 363.265 318.159 364.011 318.159C365.114 318.159 365.981 318.392 366.614 318.858C367.25 319.324 367.621 319.958 367.727 320.761ZM374.092 318.273V320.091H368.837V318.273H374.092ZM370.03 316.182H372.45V324.318C372.45 324.542 372.484 324.716 372.553 324.841C372.621 324.962 372.715 325.047 372.837 325.097C372.962 325.146 373.106 325.17 373.268 325.17C373.382 325.17 373.496 325.161 373.609 325.142C373.723 325.119 373.81 325.102 373.871 325.091L374.251 326.892C374.13 326.93 373.96 326.973 373.74 327.023C373.52 327.076 373.253 327.108 372.939 327.119C372.356 327.142 371.844 327.064 371.405 326.886C370.969 326.708 370.63 326.432 370.388 326.057C370.145 325.682 370.026 325.208 370.03 324.636V316.182ZM377.084 327.148C376.709 327.148 376.387 327.015 376.118 326.75C375.853 326.481 375.72 326.159 375.72 325.784C375.72 325.413 375.853 325.095 376.118 324.83C376.387 324.564 376.709 324.432 377.084 324.432C377.447 324.432 377.766 324.564 378.038 324.83C378.311 325.095 378.447 325.413 378.447 325.784C378.447 326.034 378.383 326.263 378.254 326.472C378.129 326.676 377.964 326.841 377.76 326.966C377.555 327.087 377.33 327.148 377.084 327.148Z" fill="black"/>
<path d="M113.267 124.962V86.4824H313.183V171.962" stroke="black" stroke-width="2.39453" stroke-linecap="round" stroke-linejoin="round"/>
<path d="M242.739 59.1953V107.309H375.274V129.249" stroke="black" stroke-width="2.39453" stroke-linecap="round" stroke-linejoin="round"/>
<path d="M118.056 129.75C118.056 132.367 115.884 134.483 113.267 134.483C110.65 134.483 108.478 132.367 108.478 129.75C108.478 127.077 110.65 124.961 113.267 124.961C115.884 124.961 118.056 127.077 118.056 129.75Z" stroke="black" stroke-width="2.39453" stroke-linecap="round" stroke-linejoin="round"/>
<path d="M247.472 54.4063C247.472 57.0235 245.356 59.1953 242.739 59.1953C240.066 59.1953 237.95 57.0235 237.95 54.4063C237.95 51.789 240.066 49.6172 242.739 49.6172C245.356 49.6172 247.472 51.789 247.472 54.4063Z" stroke="black" stroke-width="2.39453" stroke-linecap="round" stroke-linejoin="round"/>
<path d="M380.062 134.483C380.062 137.156 377.946 139.272 375.273 139.272C372.656 139.272 370.54 137.156 370.54 134.483C370.54 131.866 372.656 129.75 375.273 129.75C377.946 129.75 380.062 131.866 380.062 134.483Z" stroke="black" stroke-width="2.39453" stroke-linecap="round" stroke-linejoin="round"/>
<path d="M317.972 177.529C317.972 180.147 315.8 182.263 313.183 182.263C310.565 182.263 308.394 180.147 308.394 177.529C308.394 174.856 310.565 172.74 313.183 172.74C315.8 172.74 317.972 174.856 317.972 177.529Z" stroke="black" stroke-width="2.39453" stroke-linecap="round" stroke-linejoin="round"/>
<path d="M82.1936 273.033L70.8892 284.338" stroke="black" stroke-width="2.39453" stroke-linecap="round" stroke-linejoin="round"/>
<path d="M70.8892 273.033L82.1936 284.338" stroke="black" stroke-width="2.39453" stroke-linecap="round" stroke-linejoin="round"/>
<path d="M87.8181 109.146L76.5693 120.451" stroke="black" stroke-width="2.39453" stroke-linecap="round" stroke-linejoin="round"/>
<path d="M76.5693 109.146L87.8181 120.451" stroke="black" stroke-width="2.39453" stroke-linecap="round" stroke-linejoin="round"/>
<path d="M453.904 237.115L442.655 248.364" stroke="black" stroke-width="2.39453" stroke-linecap="round" stroke-linejoin="round"/>
<path d="M442.655 237.115L453.904 248.364" stroke="black" stroke-width="2.39453" stroke-linecap="round" stroke-linejoin="round"/>
<path d="M133.593 44.716C130.029 44.716 126.743 45.9968 124.181 48.1686C121.564 40.3168 114.158 34.6367 105.415 34.6367C95.6141 34.6367 87.5395 41.7646 85.9246 51.0643C84.9222 50.7859 83.8085 50.6188 82.6948 50.6188C76.1794 50.6188 70.8892 55.9091 70.8892 62.4245C70.8892 68.383 75.3441 73.3391 81.1355 74.063V74.1744H133.593C141.723 74.1744 148.35 67.6033 148.35 59.4731C148.35 51.3428 141.723 44.716 133.593 44.716Z" stroke="black" stroke-width="2.50591" stroke-linecap="round" stroke-linejoin="round"/>
<path d="M406.625 119.615C409.243 119.615 411.637 120.562 413.475 122.121C415.368 116.441 420.77 112.32 427.118 112.32C434.246 112.32 440.149 117.444 441.263 124.237C442.005 124.015 442.803 123.903 443.657 123.903C448.335 123.903 452.177 127.746 452.177 132.479C452.177 136.823 448.947 140.386 444.771 140.943V141.055H406.625C400.723 141.055 395.934 136.266 395.934 130.307C395.934 124.404 400.723 119.615 406.625 119.615Z" stroke="black" stroke-width="2.39453" stroke-linecap="round" stroke-linejoin="round"/>
<path d="M459.194 321.981C456.966 321.981 454.962 322.761 453.402 324.097C451.843 319.308 447.333 315.855 441.987 315.855C436.028 315.855 431.072 320.199 430.125 325.879C429.494 325.693 428.845 325.601 428.176 325.601C424.167 325.601 420.993 328.775 420.993 332.784C420.993 336.404 423.721 339.411 427.23 339.856V339.912H459.194C464.15 339.912 468.159 335.903 468.159 330.947C468.159 325.99 464.15 321.981 459.194 321.981Z" stroke="black" stroke-width="2.39453" stroke-linecap="round" stroke-linejoin="round"/>
<path d="M25.3374 303.048C27.9547 303.048 30.3492 303.995 32.1869 305.554C34.0802 299.874 39.4818 295.697 45.8301 295.697C52.9581 295.697 58.8609 300.876 59.9746 307.67C60.7171 307.447 61.4967 307.336 62.3135 307.336C67.0468 307.336 70.8892 311.178 70.8892 315.912C70.8892 320.255 67.6594 323.819 63.4829 324.376V324.432H25.3374C19.4346 324.432 14.6455 319.643 14.6455 313.74C14.6455 307.837 19.4346 303.048 25.3374 303.048Z" stroke="black" stroke-width="2.39453" stroke-linecap="round" stroke-linejoin="round"/>
<path d="M148.35 37.643C148.35 37.643 215.675 -17.2085 307.113 8.07333C403.173 34.636 422.44 103.131 422.44 103.131" stroke="black" stroke-width="2.39453" stroke-linecap="round" stroke-linejoin="round" stroke-dasharray="3.64 3.64"/>
<path d="M46.7213 197.188C20.6042 201.197 7.4621 256.605 36.8648 278.602" stroke="black" stroke-width="2.22747" stroke-linecap="round" stroke-linejoin="round" stroke-dasharray="3.39 3.39"/>
<path d="M375.273 357.008C375.273 357.008 419.99 376.498 439.592 349.268" stroke="black" stroke-width="2.39453" stroke-linecap="round" stroke-linejoin="round" stroke-dasharray="3.64 3.64"/>
<path d="M162.605 134.483V106.25" stroke="black" stroke-width="2.39453" stroke-linecap="round" stroke-linejoin="round"/>
<path d="M155.812 134.484V120.451" stroke="black" stroke-width="2.39453" stroke-linecap="round" stroke-linejoin="round"/>
<path d="M266.35 141.054V120.395" stroke="black" stroke-width="2.39453" stroke-linecap="round" stroke-linejoin="round"/>
<path d="M258.61 139.273V130.697" stroke="black" stroke-width="2.39453" stroke-linecap="round" stroke-linejoin="round"/>
<path d="M251.76 139.272V124.961" stroke="black" stroke-width="2.39453" stroke-linecap="round" stroke-linejoin="round"/>
<path d="M169.177 134.483V120.395" stroke="black" stroke-width="2.39453" stroke-linecap="round" stroke-linejoin="round"/>
<path d="M356.284 138.436V132.088" stroke="black" stroke-width="2.39453" stroke-linecap="round" stroke-linejoin="round"/>
<path d="M349.491 138.438V123.068" stroke="black" stroke-width="2.39453" stroke-linecap="round" stroke-linejoin="round"/>
<path d="M362.855 138.437V127.467" stroke="black" stroke-width="2.39453" stroke-linecap="round" stroke-linejoin="round"/>
</g>
<defs>
<clipPath id="clip0_2346_3864">
<rect width="493.942" height="377" fill="white"/>
</clipPath>
</defs>
</svg>
